ffmpeg version 2.8.11-0ubuntu0.16.04.1 Copyright (c) 2000-2017 the FFmpeg developers
  built with gcc 5.4.0 (Ubuntu 5.4.0-6ubuntu1~16.04.4) 20160609
  configuration: --prefix=/usr --extra-version=0ubuntu0.16.04.1 --build-suffix=-ffmpeg --toolchain=hardened --libdir=/usr/lib/x86_64-linux-gnu --incdir=/usr/include/x86_64-linux-gnu --cc=cc --cxx=g++ --enable-gpl --enable-shared --disable-stripping --disable-decoder=libopenjpeg --disable-decoder=libschroedinger --enable-avresample --enable-avisynth --enable-gnutls --enable-ladspa --enable-libass --enable-libbluray --enable-libbs2b --enable-libcaca --enable-libcdio --enable-libflite --enable-libfontconfig --enable-libfreetype --enable-libfribidi --enable-libgme --enable-libgsm --enable-libmodplug --enable-libmp3lame --enable-libopenjpeg --enable-libopus --enable-libpulse --enable-librtmp --enable-libschroedinger --enable-libshine --enable-libsnappy --enable-libsoxr --enable-libspeex --enable-libssh --enable-libtheora --enable-libtwolame --enable-libvorbis --enable-libvpx --enable-libwavpack --enable-libwebp --enable-libx265 --enable-libxvid --enable-libzvbi --enable-openal --enable-opengl --enable-x11grab --enable-libdc1394 --enable-libiec61883 --enable-libzmq --enable-frei0r --enable-libx264 --enable-libopencv
  libavutil      54. 31.100 / 54. 31.100
  libavcodec     56. 60.100 / 56. 60.100
  libavformat    56. 40.101 / 56. 40.101
  libavdevice    56.  4.100 / 56.  4.100
  libavfilter     5. 40.101 /  5. 40.101
  libavresample   2.  1.  0 /  2.  1.  0
  libswscale      3.  1.101 /  3.  1.101
  libswresample   1.  2.101 /  1.  2.101
  libpostproc    53.  3.100 / 53.  3.100
[mp3 @ 0x1fb68c0] Unknown attached picture mimetype: ('image/png', None), skipping.
[mp3 @ 0x1fb68c0] Skipping 0 bytes of junk at 17522.
Input #0, mp3, from 'adam-mickiewicz-sonety-krymskie-stepy-akermanskie.mp3':
  Metadata:
    title           : Adam Mickiewicz, Sonety krymskie, Stepy akermańskie
    artist          : Jan Dravnel
    album           : Wolne Lektury
    encoder         : Lavf53.21.0
    genre           : Speech
    originator_reference: RCsLVaGw1igaaaGk
    date            : 2008-10-16
    performer       : Sebastian Buttny
    album_artist    : Fundacja Nowoczesna Polska
    time_reference  : 756202382
    copyright       : 2008 Fundacja Nowoczesna Polska. Licensed to the public under http://creativecommons.org/licenses/by-sa/3.0/deed.pl verify at http://wolnelektury.pl/katalog/lektura/sonety-krymskie-stepy-akermanskie/
    creation_time   : 0009-58-10
    encoded_by      : Pro Tools
    publisher       : Fundacja Nowoczesna Polska
  Duration: 00:01:39.60, start: 0.000000, bitrate: 65 kb/s
    Stream #0:0: Audio: mp3, 44100 Hz, mono, s16p, 64 kb/s
Output #0, null, to 'pipe:':
  Metadata:
    title           : Adam Mickiewicz, Sonety krymskie, Stepy akermańskie
    artist          : Jan Dravnel
    album           : Wolne Lektury
    publisher       : Fundacja Nowoczesna Polska
    genre           : Speech
    originator_reference: RCsLVaGw1igaaaGk
    date            : 2008-10-16
    performer       : Sebastian Buttny
    album_artist    : Fundacja Nowoczesna Polska
    time_reference  : 756202382
    copyright       : 2008 Fundacja Nowoczesna Polska. Licensed to the public under http://creativecommons.org/licenses/by-sa/3.0/deed.pl verify at http://wolnelektury.pl/katalog/lektura/sonety-krymskie-stepy-akermanskie/
    encoded_by      : Pro Tools
    encoder         : Lavf56.40.101
    Stream #0:0: Audio: pcm_s16le, 44100 Hz, mono, s16, 705 kb/s
    Metadata:
      encoder         : Lavc56.60.100 pcm_s16le
Stream mapping:
  Stream #0:0 -> #0:0 (mp3 (native) -> pcm_s16le (native))
Press [q] to stop, [?] for help
[silencedetect @ 0x1fc9980] silence_start: -0.00367347
[silencedetect @ 0x1fc9980] silence_end: 0.835918 | silence_duration: 0.839592
[silencedetect @ 0x1fc9980] silence_start: 2.00776
[silencedetect @ 0x1fc9980] silence_end: 3.39592 | silence_duration: 1.38816
[silencedetect @ 0x1fc9980] silence_start: 4.41102
[silencedetect @ 0x1fc9980] silence_end: 5.69469 | silence_duration: 1.28367
[silencedetect @ 0x1fc9980] silence_start: 7.18
[silencedetect @ 0x1fc9980] silence_end: 11.5984 | silence_duration: 4.41837
[silencedetect @ 0x1fc9980] silence_start: 13.9718
[silencedetect @ 0x1fc9980] silence_end: 15.9608 | silence_duration: 1.98898
[silencedetect @ 0x1fc9980] silence_start: 19.3531
[silencedetect @ 0x1fc9980] silence_end: 20.8196 | silence_duration: 1.46653
[silencedetect @ 0x1fc9980] silence_start: 22.6706
[silencedetect @ 0x1fc9980] silence_end: 23.8498 | silence_duration: 1.17918
[silencedetect @ 0x1fc9980] silence_start: 25.2567
[silencedetect @ 0x1fc9980] silence_end: 27.1935 | silence_duration: 1.93673
[silencedetect @ 0x1fc9980] silence_start: 29.4102
[silencedetect @ 0x1fc9980] silence_end: 32.1829 | silence_duration: 2.77265
[silencedetect @ 0x1fc9980] silence_start: 33.3024
[silencedetect @ 0x1fc9980] silence_end: 34.7429 | silence_duration: 1.44041
[silencedetect @ 0x1fc9980] silence_start: 36.3065
[silencedetect @ 0x1fc9980] silence_end: 38.4261 | silence_duration: 2.11959
[silencedetect @ 0x1fc9980] silence_start: 39.3367
[silencedetect @ 0x1fc9980] silence_end: 40.5943 | silence_duration: 1.25755
[silencedetect @ 0x1fc9980] silence_start: 41.5049
[silencedetect @ 0x1fc9980] silence_end: 42.1094 | silence_duration: 0.60449
[silencedetect @ 0x1fc9980] silence_start: 43.1506
[silencedetect @ 0x1fc9980] silence_end: 45.6359 | silence_duration: 2.48531
[silencedetect @ 0x1fc9980] silence_start: 47.3563
[silencedetect @ 0x1fc9980] silence_end: 49.8678 | silence_duration: 2.51143
[silencedetect @ 0x1fc9980] silence_start: 51.5359
[silencedetect @ 0x1fc9980] silence_end: 53.8906 | silence_duration: 2.35469
[silencedetect @ 0x1fc9980] silence_start: 55.0102
[silencedetect @ 0x1fc9980] silence_end: 57.1559 | silence_duration: 2.14571
[silencedetect @ 0x1fc9980] silence_start: 58.6673
[silencedetect @ 0x1fc9980] silence_end: 61.2571 | silence_duration: 2.5898
[silencedetect @ 0x1fc9980] silence_start: 61.7237
[silencedetect @ 0x1fc9980] silence_end: 64.9404 | silence_duration: 3.21673
[silencedetect @ 0x1fc9980] silence_start: 65.5114
[silencedetect @ 0x1fc9980] silence_end: 68.4931 | silence_duration: 2.98163
[silencedetect @ 0x1fc9980] silence_start: 70.0567
[silencedetect @ 0x1fc9980] silence_end: 70.9486 | silence_duration: 0.891837
[silencedetect @ 0x1fc9980] silence_start: 73.1131
[silencedetect @ 0x1fc9980] silence_end: 75.8335 | silence_duration: 2.72041
[silencedetect @ 0x1fc9980] silence_start: 76.3522
[silencedetect @ 0x1fc9980] silence_end: 77.1918 | silence_duration: 0.839592
[silencedetect @ 0x1fc9980] silence_start: 79.0429
[silencedetect @ 0x1fc9980] silence_end: 79.9869 | silence_duration: 0.944082
[silencedetect @ 0x1fc9980] silence_start: 83.4837
[silencedetect @ 0x1fc9980] silence_end: 86.4914 | silence_duration: 3.00776
[silencedetect @ 0x1fc9980] silence_start: 87.4282
[silencedetect @ 0x1fc9980] silence_end: 89.2604 | silence_duration: 1.83224
[silencedetect @ 0x1fc9980] silence_start: 91.1637
[silencedetect @ 0x1fc9980] silence_end: 91.951 | silence_duration: 0.787347
[silencedetect @ 0x1fc9980] silence_start: 93.9065
[silencedetect @ 0x1fc9980] silence_end: 96.0784 | silence_duration: 2.17184
[silencedetect @ 0x1fc9980] silence_start: 97.4331
size=N/A time=00:01:39.60 bitrate=N/A    
video:0kB audio:8579kB subtitle:0kB other streams:0kB global headers:0kB muxing overhead: unknown
